<svg xmlns="http://www.w3.org/2000/svg" viewBox="0 0 232 87"><linearGradient id="a" gradientUnits="userSpaceOnUse" x1="15.364" y1="87.338" x2="15.364" y2="37.65"><stop offset="0" stop-color="#0027b8"/><stop offset=".13" stop-color="#0133c4"/><stop offset=".381" stop-color="#0244d4"/><stop offset=".657" stop-color="#034ede"/><stop offset="1" stop-color="#0351e1"/></linearGradient><path d="M27.3 87.3s-2.1-.9-6-2.5c-4.3-1.9-6.2-4.2-7.5-7.1-1.3-2.9-1-2.8-.5-6.3 0 0 .3-3.5 2.3-5.5 2-2 8.1-10.2 7.9-12.6-.2-2.4-.9-8.4-4.3-9.9s-6.7-3.5-10-1c-3.2 2.4-4.9 3.9-4.4 5.9.5 2 .3 4.8 2.2 6 1.9 1.2 3.8 3 5.1 1.6 1.3-1.4 2.8-2.8 1.2-4.3-1.6-1.6-1.3-2.7-3.1-1.4-1.8 1.3-1.2 3-1.2 3.4 0 .4-2.7-2.3-2.1-4.3.7-2 3.3-4.3 5.8-3.5 2.6.8 4 1.6 4.7 3.2.7 1.6 2.8 7.3-.5 9.4-3.3 2.1-7.5 4.3-9.4 2.7-1.9-1.6-5.9-3.1-7.2-9.8 0 0-.4-6.8 3.2-9 0 0 3.6-4.1 11.1-4.6s10.9 1.7 11.5 2.3c.6.6 5.4 5.5 4.8 9.5-.6 4-3.1 10.4-4.7 12.2-1.5 1.7-4.9 7.4-5.4 8.8-.8 2.1-1.9 5.8-.3 8.4 1.3 2.5 6.8 8.4 6.8 8.4z" fill-rule="evenodd" clip-rule="evenodd" fill="url(#a)"/><linearGradient id="b" gradientUnits="userSpaceOnUse" x1="33.14" y1="85.044" x2="33.14" y2="63.782"><stop offset="0" stop-color="#0027b8"/><stop offset=".13" stop-color="#0133c4"/><stop offset=".381" stop-color="#0244d4"/><stop offset=".657" stop-color="#034ede"/><stop offset="1" stop-color="#0351e1"/></linearGradient><path d="M28 84.6s-7.1-8.1-5.5-12.4c1.6-4.3 2.4-4.7 3.5-5.5 1.1-.8 6.1-3.3 8-2.8 1.9.5 5 1 6.3 2.4 1.3 1.5 3.2 2.9 3.4 5.1.1 2.2.9 6.7-.7 8.1-1.6 1.5-1.9 3.8-5.4 3.5-4.6-.5-5.1-1.3-6.5-2.6-.8-.7-3.6-4.8-2.5-6.4 1.1-1.6.9-3.3 2.4-3.5 1.6-.1 3.1-.9 4.4-.2 1.2.6 2.3 1.3 2.7 2.2.4.9.8 1.7.2 2.3-.6.5-.6-1.2-2.2-1.5-1.6-.3-3.2-.2-3.2 1s-.3 2.8 1.3 3.6c1.5.7 4.2 1.8 4.7.9.6-.9 2.9-2.8 2.5-4.5-.4-1.7-1.3-4.1-2.2-4.9 0 0-2.2-2.9-6.4-1.9-4.3 1.1-5.1 2.8-5.7 3.9-.5 1.1-1.3 4.8-1 6 .3 1.3 1.1 3.8 1.7 4.9.6 1 1.6 2 1.5 2.5-.1.6-1.3-.2-1.3-.2z" fill-rule="evenodd" clip-rule="evenodd" fill="url(#b)"/><linearGradient id="c" gradientUnits="userSpaceOnUse" x1="70.01" y1="87.346" x2="70.01" y2="37.518"><stop offset="0" stop-color="#0027b8"/><stop offset=".13" stop-color="#0133c4"/><stop offset=".381" stop-color="#0244d4"/><stop offset=".657" stop-color="#034ede"/><stop offset="1" stop-color="#0351e1"/></linearGradient><path d="M84 53.1c-3.2-3-6.5-4.2-10.3-4.2-7.3 0-12.3 5.5-12.3 13.8 0 7.6 5.5 13.5 12.9 13.8 2.2.1 3.6-.2 5.6-1.1v-6.9h-7.8l.9-9h19.4v22.1c-5.8 4-11.9 5.8-19.8 5.8-7.3 0-14.7-3.1-19.1-8.1-4-4.5-5.8-9.9-5.8-16.9 0-14 11.2-24.8 25.7-24.8 7.7 0 13.3 2 18.4 6.6L84 53.1z" fill="url(#c)"/><linearGradient id="d" gradientUnits="userSpaceOnUse" x1="113.461" y1="86.05" x2="113.461" y2="38.813"><stop offset="0" stop-color="#0027b8"/><stop offset=".13" stop-color="#0133c4"/><stop offset=".381" stop-color="#0244d4"/><stop offset=".657" stop-color="#034ede"/><stop offset="1" stop-color="#0351e1"/></linearGradient><path d="M109.4 57h15.8v9.2h-15.8v9.9H130l-1.2 9.9h-32V38.8h30v9.7h-17.6V57z" fill="url(#d)"/><linearGradient id="e" gradientUnits="userSpaceOnUse" x1="154.609" y1="86.842" x2="154.609" y2="37.95"><stop offset="0" stop-color="#0027b8"/><stop offset=".13" stop-color="#0133c4"/><stop offset=".381" stop-color="#0244d4"/><stop offset=".657" stop-color="#034ede"/><stop offset="1" stop-color="#0351e1"/></linearGradient><path d="M140.6 38l24.5 26.9-.2-26h12V85l-8.2 1.8-24.6-26.6.2 25.8h-12V39.8l8.3-1.8z" fill="url(#e)"/><linearGradient id="f" gradientUnits="userSpaceOnUse" x1="187.835" y1="86.05" x2="187.835" y2="38.813"><stop offset="0" stop-color="#0027b8"/><stop offset=".13" stop-color="#0133c4"/><stop offset=".381" stop-color="#0244d4"/><stop offset=".657" stop-color="#034ede"/><stop offset="1" stop-color="#0351e1"/></linearGradient><path d="M194.2 86h-12.8V38.8h12.8V86z" fill="url(#f)"/><linearGradient id="g" gradientUnits="userSpaceOnUse" x1="215.411" y1="86.05" x2="215.411" y2="38.813"><stop offset="0" stop-color="#0027b8"/><stop offset=".13" stop-color="#0133c4"/><stop offset=".381" stop-color="#0244d4"/><stop offset=".657" stop-color="#034ede"/><stop offset="1" stop-color="#0351e1"/></linearGradient><path d="M211.3 57h15.8v9.2h-15.8v9.9H232l-1.2 9.9h-32V38.8h30v9.7h-17.6V57z" fill="url(#g)"/><linearGradient id="h" gradientUnits="userSpaceOnUse" x1="10.891" y1="32.281" x2="10.891" y2="4.634"><stop offset="0" stop-color="#0027b8"/><stop offset=".13" stop-color="#0133c4"/><stop offset=".381" stop-color="#0244d4"/><stop offset=".657" stop-color="#034ede"/><stop offset="1" stop-color="#0351e1"/></linearGradient><path d="M.1 5.3c4.2-.5 6.2-.6 9-.6 7.3 0 11.3 2.6 11.3 7.3 0 2.6-1.1 4.2-3.8 5.7 3.4.9 5.2 3.4 5.2 6.7 0 3.5-2.1 6-5.8 7.1-1.6.5-4.1.8-6.8.8-3.1 0-5.1-.1-9-.7V5.3zm7 10.7h3.5c1.2 0 2.6-1.7 2.6-3.1 0-2.2-1.5-3.4-4.1-3.4-.4 0-1.2 0-2 .1V16zm0 11.3c.3 0 .6 0 .8.1H10c2.7 0 4.3-1.3 4.3-3.3 0-2.3-1.8-3.7-5-3.7H7.1v6.9z" fill="url(#h)"/><linearGradient id="i" gradientUnits="userSpaceOnUse" x1="30.647" y1="31.952" x2="30.647" y2="12.234"><stop offset="0" stop-color="#0027b8"/><stop offset=".13" stop-color="#0133c4"/><stop offset=".381" stop-color="#0244d4"/><stop offset=".657" stop-color="#034ede"/><stop offset="1" stop-color="#0351e1"/></linearGradient><path d="M37.4 19.5c-1.4-.5-1.8-.6-2.5-.7-1.6-.1-2.9.8-4.4 3.1V32h-6.9V20.3c0-4.4-.1-5.1-1.2-6.7l5.8-1.4c1.4.9 1.8 2 2 4.5 1.2-2.8 3.2-4.5 5.3-4.5 1.2 0 1.8.2 3.3.9l-1.4 6.4z" fill="url(#i)"/><linearGradient id="j" gradientUnits="userSpaceOnUse" x1="48.752" y1="32.568" x2="48.752" y2="12.215"><stop offset="0" stop-color="#0027b8"/><stop offset=".13" stop-color="#0133c4"/><stop offset=".381" stop-color="#0244d4"/><stop offset=".657" stop-color="#034ede"/><stop offset="1" stop-color="#0351e1"/></linearGradient><path d="M59.5 21.7c.4 6.2-4.3 10.9-10.7 10.9-3.5 0-6.3-1.1-8.3-3.1-1.6-1.7-2.5-4.2-2.5-6.7 0-6 4.2-10.1 10.5-10.5 6-.4 10.7 3.6 11 9.4zm-14.6.4c0 2.9 1.8 5.2 4.1 5.2s3.6-1.7 3.6-4.7c0-2.8-1.8-5-4.1-5-2.1 0-3.6 1.9-3.6 4.5z" fill="url(#j)"/><linearGradient id="k" gradientUnits="userSpaceOnUse" x1="70.656" y1="32.568" x2="70.656" y2="12.274"><stop offset="0" stop-color="#0027b8"/><stop offset=".13" stop-color="#0133c4"/><stop offset=".381" stop-color="#0244d4"/><stop offset=".657" stop-color="#034ede"/><stop offset="1" stop-color="#0351e1"/></linearGradient><path d="M61.9 14.3c2.5-1.3 5.5-2 8.1-2 3.1 0 5.5.9 6.9 2.5 1 1.2 1.4 2.8 1.4 5.3v4.5c0 3.1.3 3.5 2.4 3.5l-.8 4c-1.7.4-2.5.5-3.7.4-2-.1-3.2-.9-3.9-2.4-2.5 1.9-3.9 2.5-6.3 2.5-3.3 0-5.6-2.4-5.6-5.8 0-3.5 2.4-5.7 6.9-6.4.9-.2 1.6-.2 4.2-.4-.1-2.2-1.3-3.1-3.9-2.9-1.9.2-3.6.6-5.8 1.8v-4.6zm9.8 8.8c-3.5.5-4.8 1.3-5 3-.1 1.4.9 2.4 2.3 2.3.9-.1 1.5-.3 2.7-1.1v-4.2z" fill="url(#k)"/><linearGradient id="l" gradientUnits="userSpaceOnUse" x1="91.975" y1="32.552" x2="91.975" y2="3.689"><stop offset="0" stop-color="#0027b8"/><stop offset=".13" stop-color="#0133c4"/><stop offset=".381" stop-color="#0244d4"/><stop offset=".657" stop-color="#034ede"/><stop offset="1" stop-color="#0351e1"/></linearGradient><path d="M100.9 3.7v20.9c0 3.1.3 3.5 2.4 3.5l-.8 4c-1.7.4-2.5.5-3.7.4-1.9-.1-3.1-.8-3.8-2.3-1.7 1.7-3.7 2.5-6.3 2.3-4.9-.2-8.1-4.1-8.1-9.8 0-5.8 3.9-10 9.4-10.4 1.5-.1 2.4 0 4 .6V3.7h6.9zm-6.8 14.8c-.8-.6-1.5-.8-2.4-.8-2.5 0-4.1 1.7-4.1 4.4 0 2.8 1.6 4.6 4.2 4.6 1 0 1.5-.2 2.3-.8v-7.4z" fill="url(#l)"/><linearGradient id="m" gradientUnits="userSpaceOnUse" x1="114.751" y1="32.568" x2="114.751" y2="3.689"><stop offset="0" stop-color="#0027b8"/><stop offset=".13" stop-color="#0133c4"/><stop offset=".381" stop-color="#0244d4"/><stop offset=".657" stop-color="#034ede"/><stop offset="1" stop-color="#0351e1"/></linearGradient><path d="M111.5 3.7v9.6c1.5-.7 2.5-.9 3.6-.9 3.4 0 5.9 1.1 7.8 3.5 1.4 1.8 2 3.8 2 6.5 0 3.3-1.7 6.6-4.4 8.4-1.8 1.2-4.3 1.8-7.2 1.8-1.9 0-3.9-.3-5.7-.9-.7-.2-1.7-.7-3-1.3V3.7h6.9zm0 23c.9.5 1.5.6 2.3.6 2.5 0 4.1-1.8 4.1-4.6 0-2.7-1.8-4.6-4.4-4.6-.8 0-1.3.1-2.1.5v8.1z" fill="url(#m)"/><linearGradient id="n" gradientUnits="userSpaceOnUse" x1="136.09" y1="32.568" x2="136.09" y2="12.274"><stop offset="0" stop-color="#0027b8"/><stop offset=".13" stop-color="#0133c4"/><stop offset=".381" stop-color="#0244d4"/><stop offset=".657" stop-color="#034ede"/><stop offset="1" stop-color="#0351e1"/></linearGradient><path d="M127.3 14.3c2.5-1.3 5.5-2 8.1-2 3.1 0 5.5.9 6.9 2.5 1 1.2 1.4 2.8 1.4 5.3v4.5c0 3.1.3 3.5 2.4 3.5l-.8 4c-1.7.4-2.5.5-3.7.4-2-.1-3.2-.9-3.9-2.4-2.5 1.9-3.9 2.5-6.3 2.5-3.3 0-5.6-2.4-5.6-5.8 0-3.5 2.4-5.7 6.9-6.4.9-.2 1.6-.2 4.2-.4-.1-2.2-1.3-3.1-3.9-2.9-1.9.2-3.6.6-5.8 1.8v-4.6zm9.9 8.8c-3.5.5-4.8 1.3-5 3-.1 1.4.9 2.4 2.3 2.3.9-.1 1.5-.3 2.7-1.1v-4.2z" fill="url(#n)"/><linearGradient id="o" gradientUnits="userSpaceOnUse" x1="156.853" y1="31.952" x2="156.853" y2="12.234"><stop offset="0" stop-color="#0027b8"/><stop offset=".13" stop-color="#0133c4"/><stop offset=".381" stop-color="#0244d4"/><stop offset=".657" stop-color="#034ede"/><stop offset="1" stop-color="#0351e1"/></linearGradient><path d="M152.2 12.2c1.2.8 1.7 1.7 1.8 3.3 1.6-2.1 4-3.3 6.7-3.3 4.1 0 6.6 2.7 6.6 7.2V32h-6.9V21.5c0-2.4-.8-3.5-2.7-3.5-1.1 0-2.1.5-3.2 1.8V32h-6.9V20.3c0-4.4-.1-5.1-1.2-6.7l5.8-1.4z" fill="url(#o)"/><linearGradient id="p" gradientUnits="userSpaceOnUse" x1="180.576" y1="32.552" x2="180.576" y2="3.689"><stop offset="0" stop-color="#0027b8"/><stop offset=".13" stop-color="#0133c4"/><stop offset=".381" stop-color="#0244d4"/><stop offset=".657" stop-color="#034ede"/><stop offset="1" stop-color="#0351e1"/></linearGradient><path d="M189.5 3.7v20.9c0 3.1.3 3.5 2.4 3.5l-.8 4c-1.7.4-2.5.5-3.7.4-1.9-.1-3.1-.8-3.8-2.3-1.7 1.7-3.7 2.5-6.3 2.3-4.9-.2-8.1-4.1-8.1-9.8 0-5.8 3.9-10 9.4-10.4 1.5-.1 2.4 0 4 .6V3.7h6.9zm-6.8 14.8c-.8-.6-1.5-.8-2.4-.8-2.5 0-4.1 1.7-4.1 4.4 0 2.8 1.6 4.6 4.2 4.6 1 0 1.5-.2 2.3-.8v-7.4z" fill="url(#p)"/></svg>